<svg width="640" height="520" viewBox="0 0 640 520" xmlns="http://www.w3.org/2000/svg">
  <defs>
    <linearGradient id="bg" x1="0" y1="0" x2="1" y2="1">
      <stop offset="0%" stop-color="#35d9ff" stop-opacity="0.35"/>
      <stop offset="55%" stop-color="#54ffb0" stop-opacity="0.25"/>
      <stop offset="100%" stop-color="#ffffff" stop-opacity="0.12"/>
    </linearGradient>
    <linearGradient id="card" x1="0" y1="0" x2="1" y2="1">
      <stop offset="0%" stop-color="#ffffff" stop-opacity="0.95"/>
      <stop offset="100%" stop-color="#eaf1ff" stop-opacity="0.92"/>
    </linearGradient>
  </defs>
  <rect width="640" height="520" rx="42" fill="url(#bg)"/>
  <rect x="62" y="60" width="516" height="150" rx="28" fill="url(#card)"/>
  <rect x="62" y="240" width="246" height="220" rx="28" fill="#ffffff" opacity="0.92"/>
  <rect x="332" y="240" width="246" height="220" rx="28" fill="#ffffff" opacity="0.92"/>
  <circle cx="130" cy="132" r="34" fill="#35d9ff" opacity="0.35"/>
  <circle cx="196" cy="132" r="34" fill="#54ffb0" opacity="0.4"/>
  <rect x="110" y="118" width="108" height="28" rx="14" fill="#10131c" opacity="0.82"/>
  <rect x="90" y="86" width="210" height="20" rx="10" fill="#10131c" opacity="0.18"/>
  <rect x="90" y="160" width="260" height="18" rx="9" fill="#10131c" opacity="0.14"/>
  <rect x="96" y="276" width="182" height="26" rx="13" fill="#10131c" opacity="0.18"/>
  <rect x="96" y="320" width="144" height="16" rx="8" fill="#10131c" opacity="0.12"/>
  <rect x="96" y="350" width="120" height="68" rx="18" fill="#35d9ff" opacity="0.22"/>
  <circle cx="420" cy="320" r="50" fill="#54ffb0" opacity="0.18"/>
  <rect x="380" y="372" width="160" height="52" rx="18" fill="#10131c" opacity="0.12"/>
  <rect x="380" y="286" width="180" height="22" rx="11" fill="#10131c" opacity="0.18"/>
</svg>
